<?xml version="1.0" encoding="UTF-8" standalone="no"?>
<!DOCTYPE svg PUBLIC "-//W3C//DTD SVG 1.1//EN"
 "http://www.w3.org/Graphics/SVG/1.1/DTD/svg11.dtd">
<!-- Generated by graphviz version 5.0.0 (20220707.1540)
 -->
<!-- Title: dependencies Pages: 1 -->
<svg width="214pt" height="174pt"
 viewBox="0.00 0.00 214.00 173.80" xmlns="http://www.w3.org/2000/svg" xmlns:xlink="http://www.w3.org/1999/xlink">
<g id="graph0" class="graph" transform="scale(1 1) rotate(0) translate(4 169.8)">
<title>dependencies</title>
<polygon fill="white" stroke="transparent" points="-4,4 -4,-169.8 210,-169.8 210,4 -4,4"/>
<text text-anchor="middle" x="103" y="-8.2" font-family="sans-serif" font-size="14.00">dependencies</text>
<g id="clust1" class="cluster">
<title>cluster_ProducersModule</title>
<polygon fill="none" stroke="black" stroke-dasharray="1,5" points="8,-32.8 8,-157.8 198,-157.8 198,-32.8 8,-32.8"/>
</g>
<g id="clust6" class="cluster">
<title>cluster_ProducersModule_providers</title>
<polygon fill="none" stroke="black" points="16,-40.8 16,-92.8 190,-92.8 190,-40.8 16,-40.8"/>
</g>
<!-- ProducersService -->
<g id="node1" class="node">
<title>ProducersService</title>
<ellipse fill="#fdb462" stroke="black" cx="103" cy="-66.8" rx="78.72" ry="18"/>
<text text-anchor="middle" x="103" y="-62.6" font-family="Times,serif" font-size="14.00">ProducersService</text>
</g>
<!-- ProducersModule -->
<g id="node2" class="node">
<title>ProducersModule</title>
<polygon fill="#8dd3c7" stroke="black" points="160.54,-149.8 157.54,-153.8 136.54,-153.8 133.54,-149.8 45.46,-149.8 45.46,-113.8 160.54,-113.8 160.54,-149.8"/>
<text text-anchor="middle" x="103" y="-127.6" font-family="Times,serif" font-size="14.00">ProducersModule</text>
</g>
<!-- ProducersService&#45;&gt;ProducersModule -->
<g id="edge1" class="edge">
<title>ProducersService&#45;&gt;ProducersModule</title>
<path fill="none" stroke="black" d="M103,-84.91C103,-84.91 103,-103.79 103,-103.79"/>
<polygon fill="black" stroke="black" points="99.5,-103.79 103,-113.79 106.5,-103.79 99.5,-103.79"/>
</g>
</g>
</svg>
