<?xml version="1.0" encoding="UTF-8" standalone="no"?>
<!DOCTYPE svg PUBLIC "-//W3C//DTD SVG 1.1//EN"
 "http://www.w3.org/Graphics/SVG/1.1/DTD/svg11.dtd">
<!-- Generated by graphviz version 5.0.0 (20220707.1540)
 -->
<!-- Title: dependencies Pages: 1 -->
<svg width="532pt" height="174pt"
 viewBox="0.00 0.00 532.00 173.80" xmlns="http://www.w3.org/2000/svg" xmlns:xlink="http://www.w3.org/1999/xlink">
<g id="graph0" class="graph" transform="scale(1 1) rotate(0) translate(4 169.8)">
<title>dependencies</title>
<polygon fill="white" stroke="transparent" points="-4,4 -4,-169.8 528,-169.8 528,4 -4,4"/>
<text text-anchor="middle" x="262" y="-8.2" font-family="sans-serif" font-size="14.00">dependencies</text>
<g id="clust1" class="cluster">
<title>cluster_AppModule</title>
<polygon fill="none" stroke="black" stroke-dasharray="1,5" points="8,-32.8 8,-157.8 516,-157.8 516,-32.8 8,-32.8"/>
</g>
<g id="clust3" class="cluster">
<title>cluster_AppModule_imports</title>
<polygon fill="none" stroke="black" points="16,-40.8 16,-92.8 508,-92.8 508,-40.8 16,-40.8"/>
</g>
<!-- AreasModule -->
<g id="node1" class="node">
<title>AreasModule</title>
<polygon fill="#8dd3c7" stroke="black" points="500.2,-84.8 497.2,-88.8 476.2,-88.8 473.2,-84.8 407.8,-84.8 407.8,-48.8 500.2,-48.8 500.2,-84.8"/>
<text text-anchor="middle" x="454" y="-62.6" font-family="Times,serif" font-size="14.00">AreasModule</text>
</g>
<!-- AppModule -->
<g id="node5" class="node">
<title>AppModule</title>
<polygon fill="#8dd3c7" stroke="black" points="308.66,-149.8 305.66,-153.8 284.66,-153.8 281.66,-149.8 225.34,-149.8 225.34,-113.8 308.66,-113.8 308.66,-149.8"/>
<text text-anchor="middle" x="267" y="-127.6" font-family="Times,serif" font-size="14.00">AppModule</text>
</g>
<!-- AreasModule&#45;&gt;AppModule -->
<g id="edge1" class="edge">
<title>AreasModule&#45;&gt;AppModule</title>
<path fill="none" stroke="black" d="M454,-84.91C454,-104.14 454,-131.8 454,-131.8 454,-131.8 318.97,-131.8 318.97,-131.8"/>
<polygon fill="black" stroke="black" points="318.97,-128.3 308.97,-131.8 318.97,-135.3 318.97,-128.3"/>
</g>
<!-- DashboardModule -->
<g id="node2" class="node">
<title>DashboardModule</title>
<polygon fill="#8dd3c7" stroke="black" points="390.2,-84.8 387.2,-88.8 366.2,-88.8 363.2,-84.8 269.8,-84.8 269.8,-48.8 390.2,-48.8 390.2,-84.8"/>
<text text-anchor="middle" x="330" y="-62.6" font-family="Times,serif" font-size="14.00">DashboardModule</text>
</g>
<!-- DashboardModule&#45;&gt;AppModule -->
<g id="edge2" class="edge">
<title>DashboardModule&#45;&gt;AppModule</title>
<path fill="none" stroke="black" d="M289.37,-84.91C289.37,-84.91 289.37,-103.79 289.37,-103.79"/>
<polygon fill="black" stroke="black" points="285.87,-103.79 289.37,-113.79 292.87,-103.79 285.87,-103.79"/>
</g>
<!-- FarmsModule -->
<g id="node3" class="node">
<title>FarmsModule</title>
<polygon fill="#8dd3c7" stroke="black" points="252.05,-84.8 249.05,-88.8 228.05,-88.8 225.05,-84.8 157.95,-84.8 157.95,-48.8 252.05,-48.8 252.05,-84.8"/>
<text text-anchor="middle" x="205" y="-62.6" font-family="Times,serif" font-size="14.00">FarmsModule</text>
</g>
<!-- FarmsModule&#45;&gt;AppModule -->
<g id="edge3" class="edge">
<title>FarmsModule&#45;&gt;AppModule</title>
<path fill="none" stroke="black" d="M238.72,-84.91C238.72,-84.91 238.72,-103.79 238.72,-103.79"/>
<polygon fill="black" stroke="black" points="235.22,-103.79 238.72,-113.79 242.22,-103.79 235.22,-103.79"/>
</g>
<!-- ProducersModule -->
<g id="node4" class="node">
<title>ProducersModule</title>
<polygon fill="#8dd3c7" stroke="black" points="139.54,-84.8 136.54,-88.8 115.54,-88.8 112.54,-84.8 24.46,-84.8 24.46,-48.8 139.54,-48.8 139.54,-84.8"/>
<text text-anchor="middle" x="82" y="-62.6" font-family="Times,serif" font-size="14.00">ProducersModule</text>
</g>
<!-- ProducersModule&#45;&gt;AppModule -->
<g id="edge4" class="edge">
<title>ProducersModule&#45;&gt;AppModule</title>
<path fill="none" stroke="black" d="M82,-84.91C82,-104.14 82,-131.8 82,-131.8 82,-131.8 215.02,-131.8 215.02,-131.8"/>
<polygon fill="black" stroke="black" points="215.02,-135.3 225.02,-131.8 215.02,-128.3 215.02,-135.3"/>
</g>
</g>
</svg>
