<?xml version="1.0" encoding="UTF-8" standalone="no"?>
<!DOCTYPE svg PUBLIC "-//W3C//DTD SVG 1.1//EN"
 "http://www.w3.org/Graphics/SVG/1.1/DTD/svg11.dtd">
<!-- Generated by graphviz version 5.0.0 (20220707.1540)
 -->
<!-- Title: dependencies Pages: 1 -->
<svg width="182pt" height="174pt"
 viewBox="0.00 0.00 182.00 173.80" xmlns="http://www.w3.org/2000/svg" xmlns:xlink="http://www.w3.org/1999/xlink">
<g id="graph0" class="graph" transform="scale(1 1) rotate(0) translate(4 169.8)">
<title>dependencies</title>
<polygon fill="white" stroke="transparent" points="-4,4 -4,-169.8 178,-169.8 178,4 -4,4"/>
<text text-anchor="middle" x="87" y="-8.2" font-family="sans-serif" font-size="14.00">dependencies</text>
<g id="clust1" class="cluster">
<title>cluster_AreasModule</title>
<polygon fill="none" stroke="black" stroke-dasharray="1,5" points="8,-32.8 8,-157.8 166,-157.8 166,-32.8 8,-32.8"/>
</g>
<g id="clust6" class="cluster">
<title>cluster_AreasModule_providers</title>
<polygon fill="none" stroke="black" points="16,-40.8 16,-92.8 158,-92.8 158,-40.8 16,-40.8"/>
</g>
<!-- AreasService -->
<g id="node1" class="node">
<title>AreasService</title>
<ellipse fill="#fdb462" stroke="black" cx="87" cy="-66.8" rx="62.53" ry="18"/>
<text text-anchor="middle" x="87" y="-62.6" font-family="Times,serif" font-size="14.00">AreasService</text>
</g>
<!-- AreasModule -->
<g id="node2" class="node">
<title>AreasModule</title>
<polygon fill="#8dd3c7" stroke="black" points="133.2,-149.8 130.2,-153.8 109.2,-153.8 106.2,-149.8 40.8,-149.8 40.8,-113.8 133.2,-113.8 133.2,-149.8"/>
<text text-anchor="middle" x="87" y="-127.6" font-family="Times,serif" font-size="14.00">AreasModule</text>
</g>
<!-- AreasService&#45;&gt;AreasModule -->
<g id="edge1" class="edge">
<title>AreasService&#45;&gt;AreasModule</title>
<path fill="none" stroke="black" d="M87,-84.91C87,-84.91 87,-103.79 87,-103.79"/>
<polygon fill="black" stroke="black" points="83.5,-103.79 87,-113.79 90.5,-103.79 83.5,-103.79"/>
</g>
</g>
</svg>
