<?xml version="1.0" encoding="UTF-8" standalone="no"?>
<!DOCTYPE svg PUBLIC "-//W3C//DTD SVG 1.1//EN"
 "http://www.w3.org/Graphics/SVG/1.1/DTD/svg11.dtd">
<!-- Generated by graphviz version 5.0.0 (20220707.1540)
 -->
<!-- Title: dependencies Pages: 1 -->
<svg width="752pt" height="250pt"
 viewBox="0.00 0.00 752.00 249.80" xmlns="http://www.w3.org/2000/svg" xmlns:xlink="http://www.w3.org/1999/xlink">
<g id="graph0" class="graph" transform="scale(1 1) rotate(0) translate(4 245.8)">
<title>dependencies</title>
<polygon fill="white" stroke="transparent" points="-4,4 -4,-245.8 748,-245.8 748,4 -4,4"/>
<text text-anchor="middle" x="372" y="-8.2" font-family="sans-serif" font-size="14.00">dependencies</text>
<g id="clust1" class="cluster">
<title>cluster_AppModule</title>
<polygon fill="none" stroke="black" stroke-dasharray="1,5" points="116,-108.8 116,-233.8 624,-233.8 624,-108.8 116,-108.8"/>
</g>
<g id="clust3" class="cluster">
<title>cluster_AppModule_imports</title>
<polygon fill="none" stroke="black" points="124,-116.8 124,-168.8 616,-168.8 616,-116.8 124,-116.8"/>
</g>
<g id="clust7" class="cluster">
<title>cluster_AreasModule</title>
<polygon fill="none" stroke="black" stroke-dasharray="1,5" points="8,-32.8 8,-100.8 166,-100.8 166,-32.8 8,-32.8"/>
</g>
<g id="clust12" class="cluster">
<title>cluster_AreasModule_providers</title>
<polygon fill="none" stroke="black" points="16,-40.8 16,-92.8 158,-92.8 158,-40.8 16,-40.8"/>
</g>
<g id="clust13" class="cluster">
<title>cluster_DashboardModule</title>
<polygon fill="none" stroke="black" stroke-dasharray="1,5" points="174,-32.8 174,-100.8 370,-100.8 370,-32.8 174,-32.8"/>
</g>
<g id="clust18" class="cluster">
<title>cluster_DashboardModule_providers</title>
<polygon fill="none" stroke="black" points="182,-40.8 182,-92.8 362,-92.8 362,-40.8 182,-40.8"/>
</g>
<g id="clust19" class="cluster">
<title>cluster_FarmsModule</title>
<polygon fill="none" stroke="black" stroke-dasharray="1,5" points="378,-32.8 378,-100.8 538,-100.8 538,-32.8 378,-32.8"/>
</g>
<g id="clust24" class="cluster">
<title>cluster_FarmsModule_providers</title>
<polygon fill="none" stroke="black" points="386,-40.8 386,-92.8 530,-92.8 530,-40.8 386,-40.8"/>
</g>
<g id="clust25" class="cluster">
<title>cluster_ProducersModule</title>
<polygon fill="none" stroke="black" stroke-dasharray="1,5" points="546,-32.8 546,-100.8 736,-100.8 736,-32.8 546,-32.8"/>
</g>
<g id="clust30" class="cluster">
<title>cluster_ProducersModule_providers</title>
<polygon fill="none" stroke="black" points="554,-40.8 554,-92.8 728,-92.8 728,-40.8 554,-40.8"/>
</g>
<!-- AreasModule -->
<g id="node1" class="node">
<title>AreasModule</title>
<polygon fill="#8dd3c7" stroke="black" points="224.2,-160.8 221.2,-164.8 200.2,-164.8 197.2,-160.8 131.8,-160.8 131.8,-124.8 224.2,-124.8 224.2,-160.8"/>
<text text-anchor="middle" x="178" y="-138.6" font-family="Times,serif" font-size="14.00">AreasModule</text>
</g>
<!-- AppModule -->
<g id="node5" class="node">
<title>AppModule</title>
<polygon fill="#8dd3c7" stroke="black" points="405.66,-225.8 402.66,-229.8 381.66,-229.8 378.66,-225.8 322.34,-225.8 322.34,-189.8 405.66,-189.8 405.66,-225.8"/>
<text text-anchor="middle" x="364" y="-203.6" font-family="Times,serif" font-size="14.00">AppModule</text>
</g>
<!-- AreasModule&#45;&gt;AppModule -->
<g id="edge1" class="edge">
<title>AreasModule&#45;&gt;AppModule</title>
<path fill="none" stroke="black" d="M178,-160.91C178,-180.14 178,-207.8 178,-207.8 178,-207.8 312.26,-207.8 312.26,-207.8"/>
<polygon fill="black" stroke="black" points="312.26,-211.3 322.26,-207.8 312.26,-204.3 312.26,-211.3"/>
</g>
<!-- DashboardModule -->
<g id="node2" class="node">
<title>DashboardModule</title>
<polygon fill="#8dd3c7" stroke="black" points="362.2,-160.8 359.2,-164.8 338.2,-164.8 335.2,-160.8 241.8,-160.8 241.8,-124.8 362.2,-124.8 362.2,-160.8"/>
<text text-anchor="middle" x="302" y="-138.6" font-family="Times,serif" font-size="14.00">DashboardModule</text>
</g>
<!-- DashboardModule&#45;&gt;AppModule -->
<g id="edge2" class="edge">
<title>DashboardModule&#45;&gt;AppModule</title>
<path fill="none" stroke="black" d="M342.13,-160.91C342.13,-160.91 342.13,-179.79 342.13,-179.79"/>
<polygon fill="black" stroke="black" points="338.63,-179.79 342.13,-189.79 345.63,-179.79 338.63,-179.79"/>
</g>
<!-- FarmsModule -->
<g id="node3" class="node">
<title>FarmsModule</title>
<polygon fill="#8dd3c7" stroke="black" points="474.05,-160.8 471.05,-164.8 450.05,-164.8 447.05,-160.8 379.95,-160.8 379.95,-124.8 474.05,-124.8 474.05,-160.8"/>
<text text-anchor="middle" x="427" y="-138.6" font-family="Times,serif" font-size="14.00">FarmsModule</text>
</g>
<!-- FarmsModule&#45;&gt;AppModule -->
<g id="edge3" class="edge">
<title>FarmsModule&#45;&gt;AppModule</title>
<path fill="none" stroke="black" d="M392.78,-160.91C392.78,-160.91 392.78,-179.79 392.78,-179.79"/>
<polygon fill="black" stroke="black" points="389.28,-179.79 392.78,-189.79 396.28,-179.79 389.28,-179.79"/>
</g>
<!-- ProducersModule -->
<g id="node4" class="node">
<title>ProducersModule</title>
<polygon fill="#8dd3c7" stroke="black" points="607.54,-160.8 604.54,-164.8 583.54,-164.8 580.54,-160.8 492.46,-160.8 492.46,-124.8 607.54,-124.8 607.54,-160.8"/>
<text text-anchor="middle" x="550" y="-138.6" font-family="Times,serif" font-size="14.00">ProducersModule</text>
</g>
<!-- ProducersModule&#45;&gt;AppModule -->
<g id="edge4" class="edge">
<title>ProducersModule&#45;&gt;AppModule</title>
<path fill="none" stroke="black" d="M550,-160.91C550,-180.14 550,-207.8 550,-207.8 550,-207.8 415.74,-207.8 415.74,-207.8"/>
<polygon fill="black" stroke="black" points="415.74,-204.3 405.74,-207.8 415.74,-211.3 415.74,-204.3"/>
</g>
<!-- AreasService -->
<g id="node6" class="node">
<title>AreasService</title>
<ellipse fill="#fdb462" stroke="black" cx="87" cy="-66.8" rx="62.53" ry="18"/>
<text text-anchor="middle" x="87" y="-62.6" font-family="Times,serif" font-size="14.00">AreasService</text>
</g>
<!-- AreasService&#45;&gt;AreasModule -->
<g id="edge5" class="edge">
<title>AreasService&#45;&gt;AreasModule</title>
<path fill="none" stroke="black" d="M140.71,-76.12C140.71,-76.12 140.71,-114.69 140.71,-114.69"/>
<polygon fill="black" stroke="black" points="137.21,-114.69 140.71,-124.69 144.21,-114.69 137.21,-114.69"/>
</g>
<!-- DashboardService -->
<g id="node7" class="node">
<title>DashboardService</title>
<ellipse fill="#fdb462" stroke="black" cx="272" cy="-66.8" rx="81.66" ry="18"/>
<text text-anchor="middle" x="272" y="-62.6" font-family="Times,serif" font-size="14.00">DashboardService</text>
</g>
<!-- DashboardService&#45;&gt;DashboardModule -->
<g id="edge6" class="edge">
<title>DashboardService&#45;&gt;DashboardModule</title>
<path fill="none" stroke="black" d="M297.86,-84.05C297.86,-84.05 297.86,-114.56 297.86,-114.56"/>
<polygon fill="black" stroke="black" points="294.36,-114.56 297.86,-124.56 301.36,-114.56 294.36,-114.56"/>
</g>
<!-- FarmsService -->
<g id="node8" class="node">
<title>FarmsService</title>
<ellipse fill="#fdb462" stroke="black" cx="458" cy="-66.8" rx="64.27" ry="18"/>
<text text-anchor="middle" x="458" y="-62.6" font-family="Times,serif" font-size="14.00">FarmsService</text>
</g>
<!-- FarmsService&#45;&gt;FarmsModule -->
<g id="edge7" class="edge">
<title>FarmsService&#45;&gt;FarmsModule</title>
<path fill="none" stroke="black" d="M434.07,-83.67C434.07,-83.67 434.07,-114.65 434.07,-114.65"/>
<polygon fill="black" stroke="black" points="430.57,-114.65 434.07,-124.65 437.57,-114.65 430.57,-114.65"/>
</g>
<!-- ProducersService -->
<g id="node9" class="node">
<title>ProducersService</title>
<ellipse fill="#fdb462" stroke="black" cx="641" cy="-66.8" rx="78.72" ry="18"/>
<text text-anchor="middle" x="641" y="-62.6" font-family="Times,serif" font-size="14.00">ProducersService</text>
</g>
<!-- ProducersService&#45;&gt;ProducersModule -->
<g id="edge8" class="edge">
<title>ProducersService&#45;&gt;ProducersModule</title>
<path fill="none" stroke="black" d="M585.08,-79.69C585.08,-79.69 585.08,-114.71 585.08,-114.71"/>
<polygon fill="black" stroke="black" points="581.58,-114.71 585.08,-124.71 588.58,-114.71 581.58,-114.71"/>
</g>
</g>
</svg>
